<svg width="55" height="44" viewBox="0 0 55 44" fill="none" xmlns="http://www.w3.org/2000/svg">
<path d="M22.66 43.6C19.62 43.6 16.78 43.06 14.14 41.98C11.5 40.86 9.18 39.32 7.18 37.36C5.18 35.4 3.62 33.12 2.5 30.52C1.42 27.88 0.88 25.04 0.88 22C0.88 19 1.42 16.2 2.5 13.6C3.62 11 5.16 8.74 7.12 6.82C9.12 4.86 11.44 3.34 14.08 2.26C16.72 1.18 19.56 0.639998 22.6 0.639998C24.72 0.639998 26.78 0.939998 28.78 1.54C30.82 2.14 32.66 2.98 34.3 4.06C35.94 5.14 37.28 6.38 38.32 7.78L34.12 12.16C32.32 10.44 30.44 9.14 28.48 8.26C26.56 7.38 24.6 6.94 22.6 6.94C20.44 6.94 18.44 7.32 16.6 8.08C14.8 8.84 13.2 9.9 11.8 11.26C10.44 12.62 9.38 14.22 8.62 16.06C7.86 17.86 7.48 19.84 7.48 22C7.48 24.08 7.88 26.06 8.68 27.94C9.48 29.78 10.58 31.4 11.98 32.8C13.42 34.2 15.06 35.3 16.9 36.1C18.78 36.9 20.76 37.3 22.84 37.3C24.4 37.3 25.88 37.08 27.28 36.64C28.68 36.16 29.92 35.5 31 34.66C32.08 33.82 32.92 32.86 33.52 31.78C34.12 30.66 34.42 29.48 34.42 28.24V27.04L35.32 27.88H22.48V21.46H41.08C41.16 21.9 41.22 22.34 41.26 22.78C41.3 23.18 41.32 23.58 41.32 23.98C41.36 24.34 41.38 24.7 41.38 25.06C41.38 27.82 40.9 30.34 39.94 32.62C38.98 34.86 37.64 36.8 35.92 38.44C34.24 40.08 32.26 41.36 29.98 42.28C27.74 43.16 25.3 43.6 22.66 43.6ZM50.7775 43.66C49.4575 43.66 48.4375 43.28 47.7175 42.52C46.9975 41.72 46.6375 40.6 46.6375 39.16C46.6375 37.84 47.0175 36.76 47.7775 35.92C48.5375 35.08 49.5375 34.66 50.7775 34.66C52.0975 34.66 53.1175 35.06 53.8375 35.86C54.5575 36.62 54.9175 37.72 54.9175 39.16C54.9175 40.48 54.5375 41.56 53.7775 42.4C53.0175 43.24 52.0175 43.66 50.7775 43.66Z" fill="black"/>
</svg>
